<svg id="Layer_1" data-name="Layer 1" xmlns="http://www.w3.org/2000/svg" xmlns:xlink="http://www.w3.org/1999/xlink" viewBox="0 0 202.16 199"><defs><style>.cls-1{fill:url(#linear-gradient);}.cls-2{fill:#231f20;}.cls-3{fill:url(#linear-gradient-2);}.cls-4{fill:url(#linear-gradient-3);}</style><linearGradient id="linear-gradient" x1="43.08" y1="138.6" x2="134.09" y2="48.62" gradientTransform="translate(54.96 -0.05) rotate(0.01)" gradientUnits="userSpaceOnUse"><stop offset="0" stop-color="#91192d"/><stop offset="0.71" stop-color="#ed1c24"/></linearGradient><linearGradient id="linear-gradient-2" x1="-4.36" y1="196.52" x2="53.56" y2="62.07" gradientTransform="translate(54.96 -0.05) rotate(0.01)" gradientUnits="userSpaceOnUse"><stop offset="0" stop-color="#91192d"/><stop offset="0.25" stop-color="#ad1b2b"/><stop offset="0.71" stop-color="#ed1c24"/></linearGradient><linearGradient id="linear-gradient-3" x1="-81.37" y1="332.94" x2="198.99" y2="4.64" gradientUnits="userSpaceOnUse"><stop offset="0" stop-color="#58595b"/><stop offset="0.72" stop-color="#231f20"/></linearGradient></defs><title>180626_Shell</title><path class="cls-1" d="M92,47.84c41.41,9,61,140.89,42.69,157.72,17.57-15.09,66.93-62.59,73.92-125.14C217.49,1,115.63-13.19,92,47.84Z" transform="translate(-7 -10)"/><circle class="cls-2" cx="114.45" cy="44.28" r="15.34"/><path class="cls-3" d="M76.79,45.81A91.89,91.89,0,0,0,7.16,72.74a.56.56,0,0,0,.64.9,95.15,95.15,0,0,1,44.49-9.25C102.16,66.13,139.9,193.81,130.75,209a92,92,0,0,0,33.54-76.26C161.78,85.89,123.65,48,76.79,45.81Z" transform="translate(-7 -10)"/><path class="cls-2" d="M145.81,139.92a15.34,15.34,0,0,0,15.34,15.34,3.66,3.66,0,0,1,1.55.3,93,93,0,0,0,1.59-22.82q-.22-4-.8-8a16.3,16.3,0,0,0-2.34-.19A15.33,15.33,0,0,0,145.81,139.92Z" transform="translate(-7 -10)"/><path class="cls-2" d="M153.34,174a28.84,28.84,0,0,0,4.61-2.23c.72-1.81,1.39-3.64,2-5.5C155.19,171.7,148.17,175.87,153.34,174Z" transform="translate(-7 -10)"/><path class="cls-2" d="M160.2,110.31a92,92,0,0,0-11.64-24,15.3,15.3,0,0,0,11.64,24Z" transform="translate(-7 -10)"/><circle class="cls-2" cx="172.14" cy="36.46" r="15.34"/><path class="cls-2" d="M179.14,76a15.34,15.34,0,1,0,0,30.68c4.8,0,3,6-1,10.71-4.74,5.6-12.06,9.92-6.81,8,14.78-5.48,23.15-22.92,23.15-34A15.34,15.34,0,0,0,179.14,76Z" transform="translate(-7 -10)"/><path class="cls-4" d="M144.36,159c0-1,0-1.93-.06-2.89s-.09-1.77-.15-2.66c0-.59-.07-1.2-.12-1.79-.1-1.12-.22-2.22-.35-3.33,0-.33-.07-.67-.12-1A96.11,96.11,0,0,0,74.93,68l-.07,0c-1.11-.31-2.22-.59-3.34-.86-.4-.1-.79-.21-1.19-.3l-.69-.14c-1.16-.26-2.32-.51-3.49-.72h0a94.49,94.49,0,0,0-13.86-1.52,99.27,99.27,0,0,0-10.8.24c4.49.06,15.63.94,15.68,4.91s.42,138.61.42,138.61l73.16.85c.56-.93,1.1-1.86,1.62-2.81.18-.3.34-.62.5-.92.35-.65.7-1.29,1-1.94.2-.38.38-.77.57-1.15.3-.59.59-1.17.87-1.77l.57-1.26c.26-.57.52-1.14.76-1.71s.37-.89.55-1.33.47-1.13.69-1.7.35-.92.52-1.38.42-1.13.62-1.7.32-.94.47-1.41.38-1.15.56-1.72.29-1,.43-1.45.34-1.15.5-1.73l.39-1.47c.14-.58.29-1.17.43-1.75s.23-1,.34-1.5.25-1.18.37-1.77.19-1,.29-1.51.21-1.2.3-1.8.17-1,.24-1.52.17-1.22.25-1.84.13-1,.18-1.52.13-1.25.18-1.88.1-1,.13-1.51.08-1.3.12-1.94.06-1,.08-1.49c0-.68,0-1.36,0-2,0-.47,0-.94,0-1.41S144.37,159.36,144.36,159Z" transform="translate(-7 -10)"/></svg>